<!-- Generated by IcoMoon.io -->
<svg version="1.1" xmlns="http://www.w3.org/2000/svg" width="24" height="24" viewBox="0 0 24 24">
<title>php</title>
<path d="M11.943 5.321c-3.854 0-7.268 1.009-9.387 2.526-1.573 1.127-2.455 2.547-2.455 4.049 0 1.503 0.882 2.923 2.455 4.050 2.119 1.517 5.533 2.526 9.387 2.526 3.855 0 7.269-1.009 9.388-2.526 1.573-1.127 2.454-2.547 2.454-4.050 0-1.502-0.881-2.922-2.454-4.049-2.119-1.517-5.533-2.526-9.388-2.526zM11.943 6.821c3.492 0 6.595 0.871 8.514 2.246 1.12 0.802 1.828 1.76 1.828 2.829s-0.708 2.028-1.828 2.83c-1.919 1.375-5.022 2.246-8.514 2.246-3.491 0-6.594-0.871-8.514-2.246-1.119-0.802-1.828-1.76-1.828-2.83 0-1.069 0.709-2.027 1.828-2.829 1.92-1.375 5.023-2.246 8.514-2.246z"></path>
<path d="M4.641 12.701c-0.014 0.049-0.023 0.099-0.027 0.149l-0.252 1.368c-0.074 0.407 0.195 0.798 0.602 0.873s0.799-0.195 0.874-0.602l0.148-0.806c0.309-0.003 0.747-0.016 1.368-0.043 0.868-0.038 1.459-0.394 1.831-0.855 0.577-0.715 0.622-1.73 0.245-2.469-0.3-0.588-0.844-1.006-1.567-1.046-0.755-0.041-2.006 0.019-2.006 0.019-0.348 0.017-0.638 0.271-0.701 0.613l-0.515 2.799zM6.263 12.176c0.264-0.005 0.603-0.016 1.025-0.034 0.297-0.013 0.523-0.094 0.673-0.238 0.199-0.19 0.248-0.472 0.198-0.716-0.042-0.205-0.156-0.408-0.378-0.42-0.371-0.020-0.871-0.014-1.258-0.003l-0.26 1.411z"></path>
<path d="M14.533 12.828c-0.014 0.049-0.023 0.099-0.027 0.149l-0.252 1.368c-0.074 0.407 0.195 0.798 0.602 0.873s0.799-0.195 0.874-0.602l0.148-0.806c0.309-0.003 0.747-0.016 1.368-0.043 0.868-0.038 1.459-0.394 1.831-0.855 0.577-0.715 0.622-1.73 0.245-2.469-0.3-0.588-0.844-1.006-1.567-1.046-0.755-0.041-2.006 0.019-2.006 0.019-0.348 0.017-0.638 0.271-0.701 0.613l-0.515 2.799zM16.155 12.303c0.264-0.005 0.603-0.016 1.025-0.034 0.297-0.013 0.523-0.094 0.673-0.238 0.199-0.19 0.248-0.472 0.198-0.716-0.042-0.205-0.156-0.408-0.378-0.42-0.371-0.020-0.871-0.014-1.258-0.003l-0.26 1.411z"></path>
<path d="M10.613 7.854l-1 5.030-0.007 0.038-0.005 0.038-0.002 0.038-0.001 0.038 0.001 0.037 0.003 0.037 0.005 0.036 0.006 0.036 0.009 0.036 0.010 0.035 0.011 0.034 0.013 0.034 0.015 0.033 0.016 0.032 0.018 0.031 0.040 0.060 0.022 0.028 0.024 0.028 0.025 0.026 0.026 0.025 0.027 0.024 0.028 0.022 0.030 0.021 0.031 0.020 0.032 0.019 0.033 0.016 0.034 0.016 0.035 0.013 0.035 0.012 0.037 0.011 0.038 0.008 0.038 0.007 0.038 0.004 0.038 0.003 0.037 0.001 0.037-0.001 0.037-0.003 0.037-0.005 0.036-0.007 0.035-0.008 0.035-0.010 0.034-0.011 0.034-0.014 0.033-0.014 0.032-0.017 0.031-0.018 0.031-0.019 0.029-0.021 0.029-0.022 0.027-0.023 0.026-0.025 0.025-0.026 0.024-0.027 0.023-0.029 0.021-0.029 0.020-0.031 0.018-0.032 0.017-0.033 0.015-0.034 0.014-0.035 0.012-0.036 0.010-0.036 0.009-0.038 0.462-2.325c0.245-0.005 0.585-0.008 1.055-0.009 0.116 0 0.217 0.008 0.303 0.025 0.028 0.005 0.065 0.018 0.088 0.026 0.005 0.036 0.015 0.116 0.013 0.171-0.003 0.122-0.020 0.254-0.043 0.397-0.142 0.862-0.278 1.386-0.278 1.386-0.103 0.401 0.138 0.81 0.538 0.914s0.811-0.137 0.915-0.538c0 0 0.149-0.574 0.305-1.517 0.139-0.842 0.019-1.488-0.39-1.886-0.277-0.27-0.722-0.478-1.451-0.478-0.299 0.001-0.548 0.002-0.756 0.005l0.239-1.201c0.081-0.406-0.183-0.801-0.589-0.882s-0.802 0.183-0.882 0.589z"></path>
</svg>
