<!-- Generated by IcoMoon.io -->
<svg version="1.1" xmlns="http://www.w3.org/2000/svg" width="24" height="24" viewBox="0 0 24 24">
<title>symfony</title>
<path d="M11.96 0.545c-6.345 0-11.497 5.152-11.497 11.497s5.152 11.497 11.497 11.497c6.345 0 11.497-5.152 11.497-11.497s-5.152-11.497-11.497-11.497zM11.96 2.045c5.517 0 9.997 4.479 9.997 9.996s-4.479 9.997-9.997 9.997-9.997-4.479-9.997-9.997c0-5.517 4.479-9.996 9.997-9.996z"></path>
<path d="M3.861 13.353c0 0.571 0.244 1.072 0.657 1.47 0.504 0.485 1.284 0.81 2.070 0.89 1.485 0.15 2.878-0.552 2.878-2.124 0-1.134-0.438-1.762-0.948-2.27-0.179-0.179-0.369-0.339-0.545-0.508-0.252-0.242-0.465-0.509-0.412-1.027 0.044-0.415 0.381-0.516 0.705-0.539 0.521-0.038 1.078 0.107 1.281 0.203 0.536 0.252 0.903 0.629 1.33 0.969 0.555 0.442 1.182 0.842 2.154 1.025 0.913 0.171 1.979 0.303 2.829 0.145 0.541-0.1 1.006-0.314 1.352-0.654 0.363-0.355 0.614-0.851 0.651-1.551 0.022-0.414-0.296-0.767-0.709-0.789s-0.767 0.296-0.789 0.709c-0.011 0.207-0.054 0.371-0.145 0.494-0.141 0.191-0.375 0.268-0.634 0.316-0.685 0.128-1.542-0.007-2.278-0.145-0.832-0.156-1.3-0.556-1.762-0.941-0.414-0.345-0.824-0.683-1.36-0.935-0.393-0.186-1.602-0.5-2.554-0.26-0.798 0.202-1.45 0.717-1.563 1.799-0.112 1.086 0.281 1.683 0.799 2.198 0.441 0.439 1.098 0.738 1.098 1.761 0 0.607-0.654 0.689-1.226 0.631-0.381-0.038-0.764-0.162-1.049-0.368-0.18-0.129-0.33-0.287-0.33-0.499 0-0.414-0.336-0.75-0.75-0.75-0.413 0-0.75 0.336-0.75 0.75z"></path>
<path d="M18.966 6.42c0-0.54-0.253-1.051-0.695-1.427-0.851-0.725-2.471-0.957-3.77 0.341-1.442 1.443-2.103 3.96-2.673 6.978-0.507 2.68-1.623 5.754-2.36 6.546-0.243 0.261-0.737 0.337-1.147 0.264-0.272-0.048-0.532-0.19-0.497-0.522 0.044-0.412-0.255-0.781-0.666-0.825-0.412-0.044-0.782 0.255-0.825 0.666-0.056 0.523 0.066 0.943 0.283 1.275 0.308 0.472 0.835 0.776 1.444 0.883 0.908 0.161 1.968-0.141 2.506-0.719 0.825-0.887 2.169-4.29 2.736-7.29 0.503-2.663 0.987-4.922 2.26-6.195 0.527-0.526 1.153-0.587 1.577-0.366 0.174 0.090 0.327 0.218 0.327 0.391 0 0.414 0.336 0.75 0.75 0.75s0.75-0.336 0.75-0.75z"></path>
</svg>
